<svg aria-hidden="true" style="position: absolute; width: 0; height: 0; overflow: hidden;" version="1.1" xmlns="http://www.w3.org/2000/svg" xmlns:xlink="http://www.w3.org/1999/xlink">
<defs>
<symbol id="icon-facebook" viewBox="0 0 32 32">
<path fill="#1c74bb" style="fill: var(--color1, #1c74bb)" d="M29.361 31.499h-26.722c-1.181 0-2.138-0.957-2.138-2.138v-26.722c0-1.181 0.957-2.138 2.138-2.138h26.722c1.181 0 2.138 0.957 2.138 2.138v26.722c0 1.181-0.957 2.138-2.138 2.138z"></path>
<path fill="#035fa1" style="fill: var(--color2, #035fa1)" d="M2.639 28.292v-27.791c-1.181 0-2.138 0.957-2.138 2.138v26.722c0 1.181 0.957 2.138 2.138 2.138h26.722c1.181 0 2.138-0.957 2.138-2.138h-27.791c-0.59 0-1.069-0.479-1.069-1.069z"></path>
<path fill="#035fa1" style="fill: var(--color2, #035fa1)" d="M13.862 31.499v-10.689h-2.138c-0.295 0-0.534-0.239-0.534-0.534v-6.413c0-0.295 0.239-0.534 0.534-0.534h2.138v-1.603c0-4.428 3.589-8.017 8.017-8.017h5.344c0.295 0 0.534 0.239 0.534 0.534v6.413c0 0.295-0.239 0.534-0.534 0.534h-5.344c-0.295 0-0.534 0.239-0.534 0.534v1.603h5.879c0.295 0 0.534 0.239 0.534 0.534v6.413c0 0.295-0.239 0.534-0.534 0.534h-5.879v10.689h-7.482z"></path>
<path fill="#fff" style="fill: var(--color3, #fff)" d="M21.879 9.587h4.276v-4.276h-4.276c-3.536 0-6.413 2.877-6.413 6.413v3.207h-2.672v4.276h2.672v12.292h4.276v-12.292h6.413v-4.276h-6.413v-3.207c0-1.179 0.959-2.138 2.138-2.138z"></path>
<path fill="#e5e5e5" style="fill: var(--color4, #e5e5e5)" d="M15.466 29.361h4.276v2.138h-4.276v-2.138z"></path>
<path fill="#000" style="fill: var(--color5, #000)" d="M29.361 0h-22.447c-0.277 0-0.501 0.224-0.501 0.501s0.224 0.501 0.501 0.501h22.447c0.903 0 1.637 0.734 1.637 1.637v26.722c0 0.902-0.734 1.637-1.637 1.637h-9.119v-6.447c0-0.277-0.224-0.501-0.501-0.501s-0.501 0.224-0.501 0.501v6.447h-3.274v-11.791c0-0.277-0.224-0.501-0.501-0.501h-2.171v-3.274h2.171c0.277 0 0.501-0.224 0.501-0.501v-3.207c0-3.26 2.652-5.912 5.912-5.912h3.774v3.273h-3.774c-1.455 0-2.639 1.184-2.639 2.639v3.207c0 0.277 0.224 0.501 0.501 0.501h5.912v3.273h-5.912c-0.277 0-0.501 0.224-0.501 0.501v3.207c0 0.277 0.224 0.501 0.501 0.501s0.501-0.224 0.501-0.501v-2.706h5.912c0.277 0 0.501-0.224 0.501-0.501v-4.276c0-0.277-0.224-0.501-0.501-0.501h-5.912v-2.706c0-0.902 0.734-1.637 1.637-1.637h4.276c0.277 0 0.501-0.224 0.501-0.501v-4.276c0-0.277-0.224-0.501-0.501-0.501h-4.276c-3.813 0-6.914 3.102-6.914 6.914v2.706h-2.171c-0.277 0-0.501 0.224-0.501 0.501v4.276c0 0.277 0.224 0.501 0.501 0.501h2.171v11.29h-12.326c-0.903 0-1.637-0.734-1.637-1.637v-26.722c0-0.902 0.734-1.637 1.637-1.637h2.138c0.277 0 0.501-0.224 0.501-0.501s-0.224-0.501-0.501-0.501h-2.138c-1.455 0-2.639 1.184-2.639 2.639v26.722c0 1.455 1.184 2.639 2.639 2.639h26.722c1.455 0 2.639-1.184 2.639-2.639v-26.722c0-1.455-1.184-2.639-2.639-2.639z"></path>
</symbol>
<symbol id="icon-instagram" viewBox="0 0 32 32">
<path fill="#e68cbe" style="fill: var(--color6, #e68cbe)" d="M22.625 31.375h-13.25c-4.832 0-8.75-3.918-8.75-8.75v-13.25c0-4.832 3.918-8.75 8.75-8.75h13.25c4.832 0 8.75 3.918 8.75 8.75v13.25c0 4.832-3.918 8.75-8.75 8.75z"></path>
<path fill="#fff" style="fill: var(--color3, #fff)" d="M22.625 28.625h-13.25c-3.314 0-6-2.686-6-6v-13.25c0-3.314 2.686-6 6-6h13.25c3.314 0 6 2.686 6 6v13.25c0 3.314-2.686 6-6 6z"></path>
<path fill="#ff5a5a" style="fill: var(--color7, #ff5a5a)" d="M24 16c0 4.418-3.582 8-8 8s-8-3.582-8-8c0-4.418 3.582-8 8-8s8 3.582 8 8z"></path>
<path fill="#fff" style="fill: var(--color3, #fff)" d="M21 16c0 2.761-2.239 5-5 5s-5-2.239-5-5c0-2.761 2.239-5 5-5s5 2.239 5 5z"></path>
<path fill="#ff5a5a" style="fill: var(--color7, #ff5a5a)" d="M25.953 7.797c0 0.966-0.784 1.75-1.75 1.75s-1.75-0.784-1.75-1.75c0-0.966 0.784-1.75 1.75-1.75s1.75 0.784 1.75 1.75z"></path>
<path fill="#000" style="fill: var(--color5, #000)" d="M22.625 32h-13.25c-5.169 0-9.375-4.206-9.375-9.375v-13.25c0-5.169 4.206-9.375 9.375-9.375h13.25c5.169 0 9.375 4.206 9.375 9.375v13.25c0 5.169-4.206 9.375-9.375 9.375zM9.375 1.25c-4.48 0-8.125 3.645-8.125 8.125v13.25c0 4.48 3.645 8.125 8.125 8.125h13.25c4.48 0 8.125-3.645 8.125-8.125v-13.25c0-4.48-3.645-8.125-8.125-8.125h-13.25z"></path>
<path fill="#000" style="fill: var(--color5, #000)" d="M22.625 29.25h-3.771c-0.345 0-0.625-0.28-0.625-0.625s0.28-0.625 0.625-0.625h3.771c2.964 0 5.375-2.411 5.375-5.375v-13.25c0-2.964-2.411-5.375-5.375-5.375h-13.25c-2.964 0-5.375 2.411-5.375 5.375v13.25c0 2.964 2.411 5.375 5.375 5.375h3.813c0.345 0 0.625 0.28 0.625 0.625s-0.28 0.625-0.625 0.625h-3.813c-3.653 0-6.625-2.972-6.625-6.625v-13.25c0-3.653 2.972-6.625 6.625-6.625h13.25c3.653 0 6.625 2.972 6.625 6.625v13.25c0 3.653-2.972 6.625-6.625 6.625z"></path>
<path fill="#000" style="fill: var(--color5, #000)" d="M16 29.25c-0.164 0-0.326-0.067-0.442-0.183s-0.183-0.277-0.183-0.442 0.067-0.326 0.183-0.442c0.116-0.116 0.277-0.183 0.442-0.183s0.326 0.067 0.442 0.183c0.116 0.116 0.183 0.277 0.183 0.442s-0.067 0.326-0.183 0.442-0.277 0.183-0.442 0.183z"></path>
<path fill="#000" style="fill: var(--color5, #000)" d="M10.507 10.809c-0.166 0-0.332-0.066-0.455-0.196-0.237-0.251-0.225-0.647 0.026-0.883l0.028-0.026c0.252-0.236 0.647-0.223 0.883 0.029s0.223 0.647-0.029 0.883l-0.024 0.023c-0.121 0.114-0.275 0.17-0.429 0.17z"></path>
<path fill="#000" style="fill: var(--color5, #000)" d="M16 24.625c-4.756 0-8.625-3.869-8.625-8.625 0-1.492 0.387-2.963 1.12-4.253 0.171-0.3 0.552-0.405 0.852-0.235s0.405 0.552 0.235 0.852c-0.626 1.103-0.957 2.36-0.957 3.636 0 4.067 3.308 7.375 7.375 7.375s7.375-3.308 7.375-7.375-3.308-7.375-7.375-7.375c-1.191 0-2.327 0.275-3.378 0.817-0.307 0.158-0.684 0.038-0.842-0.269s-0.038-0.684 0.269-0.842c1.212-0.626 2.578-0.956 3.951-0.956 4.756 0 8.625 3.869 8.625 8.625s-3.869 8.625-8.625 8.625z"></path>
<path fill="#000" style="fill: var(--color5, #000)" d="M16 21.625c-3.102 0-5.625-2.523-5.625-5.625s2.523-5.625 5.625-5.625 5.625 2.523 5.625 5.625-2.523 5.625-5.625 5.625zM16 11.625c-2.412 0-4.375 1.963-4.375 4.375s1.963 4.375 4.375 4.375 4.375-1.963 4.375-4.375-1.963-4.375-4.375-4.375z"></path>
<path fill="#000" style="fill: var(--color5, #000)" d="M24.203 10.172c-1.31 0-2.375-1.065-2.375-2.375s1.065-2.375 2.375-2.375 2.375 1.065 2.375 2.375-1.065 2.375-2.375 2.375zM24.203 6.672c-0.62 0-1.125 0.505-1.125 1.125s0.505 1.125 1.125 1.125 1.125-0.505 1.125-1.125-0.505-1.125-1.125-1.125z"></path>
</symbol>
</defs>
</svg>
